<svg width="27" height="18" viewBox="0 0 27 18" fill="none" xmlns="http://www.w3.org/2000/svg">
<path d="M26.105 17.891C25.876 17.891 25.666 17.76 25.576 17.545C25.51 17.389 23.86 13.688 17.691 12.955C16.406 12.799 14.867 12.719 12.998 12.705V17.318C12.998 17.531 12.883 17.724 12.694 17.826C12.506 17.924 12.281 17.91 12.106 17.793L0.254 9.815C0.094 9.708 0 9.528 0 9.339C0 9.148 0.094 8.974 0.254 8.862L12.111 0.882998C12.286 0.761998 12.509 0.753998 12.699 0.853998C12.889 0.955998 13.002 1.149 13.002 1.356V5.649C15.58 5.985 26.676 7.979 26.676 17.323C26.676 17.594 26.485 17.831 26.217 17.885C26.18 17.891 26.141 17.891 26.105 17.891Z" fill="#FAFAFA"/>
</svg>
